<mxfile host="app.diagrams.net" agent="Mozilla/5.0 (Windows NT 10.0; Win64; x64) AppleWebKit/537.36 (KHTML, like Gecko) Chrome/130.0.0.0 Safari/537.36" version="25.0.3">
  <diagram name="Trang-1" id="1WjkFRbqc3tZHIQ2UeDp">
    <mxGraphModel dx="2236" dy="1180" grid="0" gridSize="10" guides="1" tooltips="1" connect="1" arrows="1" fold="1" page="1" pageScale="1" pageWidth="1654" pageHeight="2336" math="0" shadow="0">
      <root>
        <mxCell id="0" />
        <mxCell id="1" parent="0" />
        <mxCell id="WSMp2yYIp0e93uHmt-WZ-1" value="" style="rounded=0;whiteSpace=wrap;html=1;" vertex="1" parent="1">
          <mxGeometry x="440" y="240" width="120" height="200" as="geometry" />
        </mxCell>
        <mxCell id="WSMp2yYIp0e93uHmt-WZ-3" style="edgeStyle=orthogonalEdgeStyle;rounded=0;orthogonalLoop=1;jettySize=auto;html=1;exitX=1;exitY=0.5;exitDx=0;exitDy=0;entryX=0;entryY=0.5;entryDx=0;entryDy=0;fontSize=20;" edge="1" parent="1" source="WSMp2yYIp0e93uHmt-WZ-2" target="WSMp2yYIp0e93uHmt-WZ-4">
          <mxGeometry relative="1" as="geometry">
            <mxPoint x="380" y="430" as="targetPoint" />
          </mxGeometry>
        </mxCell>
        <mxCell id="WSMp2yYIp0e93uHmt-WZ-2" value="&lt;b&gt;I&lt;/b&gt;" style="rounded=1;whiteSpace=wrap;html=1;fontSize=20;fillColor=#fff2cc;strokeColor=#d6b656;" vertex="1" parent="1">
          <mxGeometry x="320" y="320" width="40" height="40" as="geometry" />
        </mxCell>
        <mxCell id="WSMp2yYIp0e93uHmt-WZ-6" style="edgeStyle=orthogonalEdgeStyle;rounded=0;orthogonalLoop=1;jettySize=auto;html=1;exitX=1;exitY=0.5;exitDx=0;exitDy=0;entryX=0;entryY=0.5;entryDx=0;entryDy=0;fontSize=20;" edge="1" parent="1" source="WSMp2yYIp0e93uHmt-WZ-4" target="WSMp2yYIp0e93uHmt-WZ-5">
          <mxGeometry relative="1" as="geometry" />
        </mxCell>
        <mxCell id="WSMp2yYIp0e93uHmt-WZ-4" value="&lt;b&gt;C&lt;/b&gt;" style="rounded=1;whiteSpace=wrap;html=1;fontSize=20;fillColor=#f8cecc;strokeColor=#b85450;" vertex="1" parent="1">
          <mxGeometry x="480" y="320" width="40" height="40" as="geometry" />
        </mxCell>
        <mxCell id="WSMp2yYIp0e93uHmt-WZ-5" value="&lt;b&gt;O&lt;/b&gt;" style="rounded=1;whiteSpace=wrap;html=1;fontSize=20;fillColor=#d5e8d4;strokeColor=#82b366;" vertex="1" parent="1">
          <mxGeometry x="640" y="320" width="40" height="40" as="geometry" />
        </mxCell>
        <mxCell id="WSMp2yYIp0e93uHmt-WZ-7" style="edgeStyle=orthogonalEdgeStyle;rounded=0;orthogonalLoop=1;jettySize=auto;html=1;exitX=0.5;exitY=0;exitDx=0;exitDy=0;entryX=0.006;entryY=0.196;entryDx=0;entryDy=0;entryPerimeter=0;" edge="1" parent="1" source="WSMp2yYIp0e93uHmt-WZ-5" target="WSMp2yYIp0e93uHmt-WZ-1">
          <mxGeometry relative="1" as="geometry">
            <mxPoint x="660" y="340" as="sourcePoint" />
            <mxPoint x="430" y="280" as="targetPoint" />
            <Array as="points">
              <mxPoint x="660" y="200" />
              <mxPoint x="360" y="200" />
              <mxPoint x="360" y="279" />
            </Array>
          </mxGeometry>
        </mxCell>
        <mxCell id="WSMp2yYIp0e93uHmt-WZ-8" value="&lt;font style=&quot;font-size: 13px;&quot;&gt;STATE&lt;/font&gt;" style="ellipse;whiteSpace=wrap;html=1;fontSize=20;fontStyle=1;fillColor=#dae8fc;strokeColor=#6c8ebf;" vertex="1" parent="1">
          <mxGeometry x="466.25" y="379" width="67.5" height="45" as="geometry" />
        </mxCell>
        <mxCell id="WSMp2yYIp0e93uHmt-WZ-9" value="" style="curved=1;endArrow=classic;html=1;rounded=0;entryX=1;entryY=0.5;entryDx=0;entryDy=0;exitX=1;exitY=0.75;exitDx=0;exitDy=0;" edge="1" parent="1" source="WSMp2yYIp0e93uHmt-WZ-4" target="WSMp2yYIp0e93uHmt-WZ-8">
          <mxGeometry width="50" height="50" relative="1" as="geometry">
            <mxPoint x="769.25" y="496" as="sourcePoint" />
            <mxPoint x="683" y="495.5" as="targetPoint" />
            <Array as="points">
              <mxPoint x="557" y="382" />
            </Array>
          </mxGeometry>
        </mxCell>
        <mxCell id="WSMp2yYIp0e93uHmt-WZ-10" value="" style="curved=1;endArrow=classic;html=1;rounded=0;entryX=0;entryY=0.75;entryDx=0;entryDy=0;exitX=0;exitY=0.5;exitDx=0;exitDy=0;" edge="1" parent="1" source="WSMp2yYIp0e93uHmt-WZ-8" target="WSMp2yYIp0e93uHmt-WZ-4">
          <mxGeometry width="50" height="50" relative="1" as="geometry">
            <mxPoint x="337" y="463" as="sourcePoint" />
            <mxPoint x="387" y="413" as="targetPoint" />
            <Array as="points">
              <mxPoint x="439" y="384" />
            </Array>
          </mxGeometry>
        </mxCell>
        <mxCell id="WSMp2yYIp0e93uHmt-WZ-11" value="" style="rounded=0;whiteSpace=wrap;html=1;" vertex="1" parent="1">
          <mxGeometry x="947" y="236.91" width="120" height="200" as="geometry" />
        </mxCell>
        <mxCell id="WSMp2yYIp0e93uHmt-WZ-12" style="edgeStyle=orthogonalEdgeStyle;rounded=0;orthogonalLoop=1;jettySize=auto;html=1;exitX=1;exitY=0.5;exitDx=0;exitDy=0;entryX=0;entryY=0.5;entryDx=0;entryDy=0;fontSize=20;" edge="1" source="WSMp2yYIp0e93uHmt-WZ-13" target="WSMp2yYIp0e93uHmt-WZ-15" parent="1">
          <mxGeometry relative="1" as="geometry">
            <mxPoint x="887" y="426.91" as="targetPoint" />
          </mxGeometry>
        </mxCell>
        <mxCell id="WSMp2yYIp0e93uHmt-WZ-13" value="&lt;b&gt;I&lt;/b&gt;" style="rounded=1;whiteSpace=wrap;html=1;fontSize=20;fillColor=#fff2cc;strokeColor=#d6b656;" vertex="1" parent="1">
          <mxGeometry x="827" y="316.91" width="40" height="40" as="geometry" />
        </mxCell>
        <mxCell id="WSMp2yYIp0e93uHmt-WZ-14" style="edgeStyle=orthogonalEdgeStyle;rounded=0;orthogonalLoop=1;jettySize=auto;html=1;exitX=1;exitY=0.5;exitDx=0;exitDy=0;entryX=0;entryY=0.5;entryDx=0;entryDy=0;fontSize=20;" edge="1" source="WSMp2yYIp0e93uHmt-WZ-15" target="WSMp2yYIp0e93uHmt-WZ-16" parent="1">
          <mxGeometry relative="1" as="geometry" />
        </mxCell>
        <mxCell id="WSMp2yYIp0e93uHmt-WZ-15" value="&lt;b&gt;C&lt;/b&gt;" style="rounded=1;whiteSpace=wrap;html=1;fontSize=20;fillColor=#f8cecc;strokeColor=#b85450;" vertex="1" parent="1">
          <mxGeometry x="987" y="316.91" width="40" height="40" as="geometry" />
        </mxCell>
        <mxCell id="WSMp2yYIp0e93uHmt-WZ-16" value="&lt;b&gt;O&lt;/b&gt;" style="rounded=1;whiteSpace=wrap;html=1;fontSize=20;fillColor=#d5e8d4;strokeColor=#82b366;" vertex="1" parent="1">
          <mxGeometry x="1147" y="316.91" width="40" height="40" as="geometry" />
        </mxCell>
        <mxCell id="WSMp2yYIp0e93uHmt-WZ-17" style="edgeStyle=orthogonalEdgeStyle;rounded=0;orthogonalLoop=1;jettySize=auto;html=1;exitX=0.5;exitY=0;exitDx=0;exitDy=0;entryX=0.006;entryY=0.196;entryDx=0;entryDy=0;entryPerimeter=0;" edge="1" source="WSMp2yYIp0e93uHmt-WZ-16" target="WSMp2yYIp0e93uHmt-WZ-11" parent="1">
          <mxGeometry relative="1" as="geometry">
            <mxPoint x="1167" y="336.91" as="sourcePoint" />
            <mxPoint x="937" y="276.91" as="targetPoint" />
            <Array as="points">
              <mxPoint x="1167" y="196.91" />
              <mxPoint x="867" y="196.91" />
              <mxPoint x="867" y="275.91" />
            </Array>
          </mxGeometry>
        </mxCell>
      </root>
    </mxGraphModel>
  </diagram>
</mxfile>
